<?xml version="1.0" encoding="utf-8"?>
<!-- Generator: Adobe Illustrator 23.0.1, SVG Export Plug-In . SVG Version: 6.00 Build 0)  -->
<svg version="1.1" id="Layer_1" xmlns="http://www.w3.org/2000/svg" xmlns:xlink="http://www.w3.org/1999/xlink" x="0px" y="0px"
	 viewBox="0 0 500 250" style="enable-background:new 0 0 500 250;" xml:space="preserve">
<style type="text/css">
	.st0{fill:url(#SVGID_2_);}
	.st1{clip-path:url(#SVGID_5_);}
	.st2{fill:url(#SVGID_6_);}
</style>
<g>
	<g>
		<g>
			
				<linearGradient id="SVGID_2_" gradientUnits="userSpaceOnUse" x1="193.1296" y1="28.0442" x2="301.7367" y2="28.0442" gradientTransform="matrix(1 0 0 -1 0 96)">
				<stop  offset="0" style="stop-color:#DD1E32"/>
				<stop  offset="1" style="stop-color:#8D1923"/>
			</linearGradient>
			<path id="SVGID_1_" class="st0" d="M289.3,89.1L289.3,89.1c-2,2.8-2.8,5.8-2.8,8.9v35.1h15.6V98c0-3.1-1.2-6.1-2.8-8.9
				c0,0,0,0,0-0.3l-4.7-6.7L289.3,89.1z M258.2,41.3L258.2,41.3c-2,2.8-2.8,5.8-2.8,8.9V133h15.6V50.2c0-3.1-1.2-6.1-2.8-8.9l0,0
				l-4.7-6.7L258.2,41.3z M193.1,2.5v35.1c0,3.1,1.2,6.1,2.8,8.9c0,0,0,0,0,0.3l5,6.4l-4.7,6.4l0,0c0,0.3-0.3,0.3-0.3,0.5
				c-1.6,2.4-2.4,5.6-2.4,6.4v67.1H209V66.3c0-0.8-0.8-3.9-2.4-6.4c0-0.3-0.3-0.3-0.3-0.5l0,0l-5.2-6.4l4.7-6.7l0,0
				c2-2.4,2.8-5.6,2.8-8.9v-35H193.1z M224.3,2.5v82.8c0,3.1,1.2,6.1,2.8,8.9l0,0l4.7,6.7l-4.7,6.4c0,0,0,0,0,0.3s-0.3,0.3-0.3,0.5
				c-1.6,2.4-2.4,5.6-2.4,8.6v16.7h15.6v-16.8c0-3.1-0.8-6.1-2.8-8.6c0-0.3-0.3-0.3-0.3-0.5c0,0,0,0,0-0.3l-4.7-6.4l4.7-6.7l0,0
				c2-2.4,2.8-5.6,2.8-8.9V2.5H224.3z M255.4,2.5v16.7c0,3.1,0.8,6.1,2.4,8.6c0,0.3,0.3,0.3,0.3,0.5c0,0,0,0,0,0.3l4.7,6.4l4.7-6.4
				c0,0,0,0,0-0.3c0-0.3,0.3-0.3,0.3-0.5c1.6-2.4,2.4-5.6,2.4-8.6V2.5C270.4,2.5,255.4,2.5,255.4,2.5z M286.1,2.5v66.9
				c0,0.8,0.8,3.9,2.4,6.4c0,0.3,0.3,0.3,0.3,0.5c0,0,0,0,0,0.3l4.7,6.4l4.7-6.4c0,0,0,0,0-0.3s0.3-0.3,0.3-0.5
				c1.6-2.4,2.4-5.6,2.4-6.4V2.5H286.1z"/>
		</g>
		<g>
			<g>
				<g>
					<defs>
						<path id="SVGID_3_" d="M289.3,89.1L289.3,89.1c-2,2.8-2.8,5.8-2.8,8.9v35.1h15.6V98c0-3.1-1.2-6.1-2.8-8.9c0,0,0,0,0-0.3
							l-4.7-6.7L289.3,89.1z M258.2,41.3L258.2,41.3c-2,2.8-2.8,5.8-2.8,8.9V133h15.6V50.2c0-3.1-1.2-6.1-2.8-8.9l0,0l-4.7-6.7
							L258.2,41.3z M193.1,2.5v35.1c0,3.1,1.2,6.1,2.8,8.9c0,0,0,0,0,0.3l5,6.4l-4.7,6.4l0,0c0,0.3-0.3,0.3-0.3,0.5
							c-1.6,2.4-2.4,5.6-2.4,6.4v67.1H209V66.3c0-0.8-0.8-3.9-2.4-6.4c0-0.3-0.3-0.3-0.3-0.5l0,0l-5.2-6.4l4.7-6.7l0,0
							c2-2.4,2.8-5.6,2.8-8.9v-35H193.1z M224.3,2.5v82.8c0,3.1,1.2,6.1,2.8,8.9l0,0l4.7,6.7l-4.7,6.4c0,0,0,0,0,0.3
							s-0.3,0.3-0.3,0.5c-1.6,2.4-2.4,5.6-2.4,8.6v16.7h15.6v-16.8c0-3.1-0.8-6.1-2.8-8.6c0-0.3-0.3-0.3-0.3-0.5c0,0,0,0,0-0.3
							l-4.7-6.4l4.7-6.7l0,0c2-2.4,2.8-5.6,2.8-8.9V2.5H224.3z M255.4,2.5v16.7c0,3.1,0.8,6.1,2.4,8.6c0,0.3,0.3,0.3,0.3,0.5
							c0,0,0,0,0,0.3l4.7,6.4l4.7-6.4c0,0,0,0,0-0.3c0-0.3,0.3-0.3,0.3-0.5c1.6-2.4,2.4-5.6,2.4-8.6V2.5
							C270.4,2.5,255.4,2.5,255.4,2.5z M286.1,2.5v66.9c0,0.8,0.8,3.9,2.4,6.4c0,0.3,0.3,0.3,0.3,0.5c0,0,0,0,0,0.3l4.7,6.4l4.7-6.4
							c0,0,0,0,0-0.3s0.3-0.3,0.3-0.5c1.6-2.4,2.4-5.6,2.4-6.4V2.5H286.1z"/>
					</defs>
					<clipPath id="SVGID_5_">
						<use xlink:href="#SVGID_3_"  style="overflow:visible;"/>
					</clipPath>
					<g class="st1">
						<g>
							
								<linearGradient id="SVGID_6_" gradientUnits="userSpaceOnUse" x1="-492.211" y1="28.2179" x2="1359.2626" y2="28.2179" gradientTransform="matrix(1 0 0 -1 0 96)">
								<stop  offset="0" style="stop-color:#DD1E32"/>
								<stop  offset="1" style="stop-color:#8D1923"/>
							</linearGradient>
							<rect id="SVGID_4_" x="-492.2" y="-586.7" class="st2" width="1851.5" height="1309.1"/>
						</g>
					</g>
				</g>
			</g>
		</g>
	</g>
	<g>
		<path d="M59.8,160.7c0.8,0.2,1.5,0.7,2.3,1.3c0.7,0.5,1.2,0.6,1.5,0.6c0.2,0,0.5-0.1,0.6-0.5c0.1-0.3,0.2-0.8,0.3-1.5h1
			c-0.1,1.7-0.2,4.9-0.2,9.3h-1c-0.2-2.4-0.9-4.5-2.1-6.1c-1.3-1.6-3-2.5-5.3-2.5c-1.6,0-2.9,0.5-3.9,1.5c-1,0.9-1.5,2.2-1.5,3.8
			c0,1.2,0.2,2.1,0.8,3c0.6,0.8,1.2,1.6,2,2.2c0.8,0.6,2,1.4,3.5,2.3l1.3,0.8c1.9,1.2,3.4,2.2,4.5,3.1c1,0.9,2,1.9,2.7,3
			c0.7,1.2,1,2.4,1,4.1c0,2.8-0.9,4.9-2.7,6.4c-1.9,1.5-4.1,2.2-6.8,2.2c-1.4,0-2.7-0.1-3.6-0.5c-0.9-0.3-1.9-0.7-2.7-1.3
			c-0.7-0.5-1.2-0.6-1.5-0.6c-0.2,0-0.5,0.1-0.6,0.5c-0.1,0.3-0.2,0.8-0.3,1.5h-1c0.1-1.6,0.2-5.2,0.2-10.9h1c0.2,3,0.9,5.6,2.3,7.4
			c1.3,1.9,3.2,2.9,5.9,2.9c1.6,0,3-0.5,4.2-1.5c1.2-1,1.7-2.5,1.7-4.5c0-1.7-0.6-3.1-1.7-4.3c-1.2-1.2-2.9-2.5-5.3-3.9
			c-1.7-1-3.2-2.1-4.3-2.9c-1-0.8-2-1.9-2.7-3c-0.7-1.2-1-2.5-1-4.2c0-2.5,0.8-4.5,2.4-5.8c1.6-1.4,3.6-2,6-2
			C58,160.2,59,160.4,59.8,160.7z"/>
		<path d="M89.3,171.9c1.9,2.1,2.8,5.1,2.8,9.3c0,4.2-0.9,7.2-2.8,9.3c-1.9,2-4.4,3-7.4,3c-3.1,0-5.6-1-7.4-3
			c-1.9-2-2.8-5.1-2.8-9.3c0-4.2,0.9-7.2,2.8-9.3c1.9-2.1,4.4-3,7.4-3C84.9,168.8,87.4,169.8,89.3,171.9z M77.5,172.5
			c-1,1.9-1.6,4.7-1.6,8.6c0,3.9,0.6,6.7,1.6,8.6c1,1.9,2.4,2.8,4.3,2.8s3.2-0.9,4.3-2.8c1-1.9,1.6-4.7,1.6-8.6
			c0-3.9-0.6-6.7-1.6-8.6c-1-1.9-2.4-2.8-4.3-2.8C80.1,169.7,78.6,170.6,77.5,172.5z"/>
		<path d="M112.1,170.3c1.4,0.9,2.1,2.1,2.1,3.5c0,0.8-0.2,1.4-0.7,1.9c-0.5,0.5-1,0.7-1.7,0.7s-1.3-0.2-1.7-0.6
			c-0.5-0.5-0.7-0.9-0.7-1.6c0-0.6,0.2-1.2,0.6-1.6c0.3-0.5,0.8-0.7,1.4-0.9c-0.3-0.6-0.8-1-1.6-1.4c-0.8-0.3-1.6-0.6-2.4-0.6
			c-1.2,0-2.2,0.3-3.1,1c-0.9,0.7-1.7,1.9-2.4,3.5c-0.6,1.6-0.9,3.8-0.9,6.5c0,3.7,0.6,6.5,1.9,8.1c1.2,1.7,2.8,2.5,4.7,2.5
			c1.3,0,2.5-0.3,3.7-1.2c1.2-0.7,2.1-2,2.9-3.5l0.8,0.3c-0.5,1.7-1.5,3.2-2.9,4.4c-1.4,1.3-3.2,1.9-5.4,1.9c-1.9,0-3.6-0.5-5.1-1.4
			c-1.5-0.9-2.7-2.3-3.6-4.2c-0.9-1.9-1.3-3.9-1.3-6.4c0-2.4,0.5-4.6,1.4-6.5c0.9-1.9,2.1-3.4,3.7-4.4c1.6-1,3.5-1.6,5.4-1.6
			C108.9,168.8,110.7,169.4,112.1,170.3z"/>
		<path d="M125,188.5c0,1.3,0.2,2.1,0.8,2.5c0.5,0.5,1.4,0.7,2.7,0.7v0.9c-2.8-0.1-4.6-0.2-5.4-0.2s-2.7,0.1-5.4,0.2v-0.9
			c1.3,0,2.2-0.2,2.7-0.7c0.5-0.5,0.8-1.3,0.8-2.5v-14.1c0-1.4-0.2-2.4-0.8-3c-0.6-0.6-1.4-0.9-2.7-0.9v-0.9
			c0.9,0.1,1.9,0.1,2.8,0.1c1.9,0,3.5-0.2,4.7-0.6v19.5H125z M124.7,159.1c0.6,0.6,0.8,1.3,0.8,2.1s-0.2,1.5-0.8,2.1
			c-0.6,0.6-1.3,0.8-2.1,0.8s-1.5-0.2-2.1-0.8c-0.6-0.6-0.8-1.3-0.8-2.1s0.2-1.5,0.8-2.1c0.6-0.6,1.3-0.8,2.1-0.8
			C123.4,158.1,124.1,158.5,124.7,159.1z"/>
		<path d="M150.4,187.3c-0.6,1.6-1.5,3.1-3,4.3c-1.5,1.2-3.2,1.7-5.4,1.7c-2.1,0-3.9-0.5-5.6-1.5c-1.6-1-2.8-2.3-3.6-4.1
			c-0.8-1.7-1.3-3.8-1.3-6.1c0-2.7,0.5-4.9,1.3-6.8c0.8-2,2.1-3.4,3.6-4.4s3.4-1.5,5.3-1.5c2.7,0,4.7,0.8,6.3,2.4
			c1.5,1.6,2.2,4.2,2.2,7.5H136c-0.1,0.8-0.1,1.9-0.1,2.9c0,2,0.3,3.7,0.9,5.2c0.7,1.5,1.5,2.7,2.5,3.4c1,0.8,2.2,1.2,3.4,1.2
			c1.4,0,2.8-0.3,3.8-1c1.2-0.7,2.1-1.9,2.8-3.5L150.4,187.3z M137.9,171.8c-1,1.4-1.6,3.5-1.9,6.1h9.8c0.1-2.3-0.2-4.3-1-5.9
			c-0.7-1.6-1.9-2.3-3.2-2.3C140.1,169.7,138.9,170.4,137.9,171.8z"/>
		<path d="M160.9,169.5h6.7v0.9h-6.7v17.5c0,1.4,0.2,2.3,0.7,2.9c0.5,0.6,1.2,0.9,2.2,0.9c0.9,0,1.7-0.3,2.4-1.2
			c0.7-0.7,1.3-2,1.6-3.7l0.9,0.2c-0.8,4.2-2.7,6.3-5.9,6.3c-1,0-1.9-0.1-2.5-0.3c-0.7-0.2-1.3-0.6-1.7-1.2
			c-0.7-0.7-1.2-1.5-1.4-2.4c-0.2-0.9-0.3-2.3-0.3-3.9v-15.2h-4.3v-0.9h4.3v-6.9c1.7-0.1,3-0.2,4.1-0.6V169.5z"/>
		<path d="M171.5,191.6c-0.9-0.9-1.4-2.3-1.4-3.9c0-1.4,0.3-2.4,1.2-3.4c0.7-0.9,1.6-1.6,2.7-2.1c1-0.5,2.3-1,4.1-1.6
			c1.7-0.6,2.9-1,3.7-1.6c0.8-0.5,1.3-1.2,1.3-2v-2.8c0-1.7-0.3-2.9-1.2-3.6c-0.7-0.7-1.7-0.9-3.1-0.9c-2.1,0-3.6,0.6-4.5,1.6
			c0.6,0.1,1.2,0.5,1.5,0.9c0.5,0.5,0.6,1,0.6,1.9c0,0.8-0.2,1.4-0.7,1.7c-0.5,0.5-1,0.7-1.9,0.7c-0.8,0-1.5-0.2-1.9-0.8
			c-0.5-0.6-0.6-1.2-0.6-2c0-0.7,0.1-1.3,0.5-1.9c0.3-0.5,0.8-0.9,1.5-1.4c0.7-0.5,1.6-0.9,2.8-1.3c1.2-0.3,2.3-0.5,3.7-0.5
			c2.3,0,4.2,0.6,5.3,1.6c0.8,0.7,1.3,1.5,1.5,2.5c0.2,1,0.3,2.3,0.3,3.8v12.5c0,0.7,0.1,1.3,0.3,1.6c0.2,0.3,0.6,0.5,1,0.5
			c0.3,0,0.7-0.1,1-0.2c0.3-0.1,0.7-0.3,1-0.7l0.5,0.8c-0.8,0.6-1.5,1-2,1.3c-0.6,0.2-1.3,0.3-2.1,0.3c-1.4,0-2.4-0.3-3-1
			c-0.6-0.7-0.8-1.7-0.8-2.9c-0.9,1.5-2,2.5-3.1,3.1c-1.2,0.6-2.5,0.9-3.9,0.9C173.8,193,172.4,192.5,171.5,191.6z M182.7,187.8V179
			c-0.2,0.5-0.7,0.8-1.2,1c-0.5,0.2-1.3,0.6-2.2,1c-1.2,0.5-2.1,0.9-2.8,1.4c-0.7,0.5-1.3,1-1.9,1.7c-0.5,0.8-0.8,1.7-0.8,2.9
			c0,1.4,0.3,2.4,1,3.1c0.7,0.7,1.5,1,2.7,1C179.6,191.3,181.3,190.1,182.7,187.8z"/>
		<path d="M199.4,169.5h6.7v0.9h-6.7v17.5c0,1.4,0.2,2.3,0.7,2.9c0.5,0.6,1.2,0.9,2.2,0.9c0.9,0,1.7-0.3,2.4-1.2
			c0.7-0.7,1.3-2,1.6-3.7l0.9,0.2c-0.8,4.2-2.7,6.3-5.9,6.3c-1,0-1.9-0.1-2.5-0.3c-0.7-0.2-1.3-0.6-1.7-1.2
			c-0.7-0.7-1.2-1.5-1.4-2.4c-0.2-0.9-0.3-2.3-0.3-3.9v-15.2h-4.4v-0.9h4.3v-6.9c1.7-0.1,3-0.2,4.1-0.6v7.6H199.4z"/>
		<path d="M238.6,160.9c1.3,0.5,2.5,1.3,3.7,2.2c0.3,0.2,0.6,0.5,0.8,0.5c0.6,0,1-0.9,1.2-2.7h1c-0.1,2-0.2,5.4-0.2,10.4h-0.9
			c-0.3-2-0.6-3.4-0.9-4.2c-0.2-0.8-0.7-1.6-1.4-2.4c-0.9-1.2-2.1-2.1-3.5-2.7c-1.4-0.6-2.9-0.9-4.5-0.9c-2,0-3.7,0.7-5.1,2
			c-1.5,1.3-2.5,3.1-3.4,5.6s-1.3,5.2-1.3,8.5c0,3.2,0.5,6.1,1.3,8.5c0.9,2.3,2.1,4.2,3.6,5.3c1.5,1.2,3.4,1.9,5.2,1.9
			c1.5,0,3-0.2,4.4-0.8c1.4-0.6,2.5-1.4,3.4-2.5c0.6-0.8,1-1.7,1.3-2.7c0.2-0.9,0.6-2.4,0.8-4.4h1c0,5.2,0.1,8.8,0.2,10.9h-1
			c-0.1-0.9-0.2-1.6-0.3-2.1c-0.1-0.5-0.3-0.6-0.7-0.6c-0.2,0-0.6,0.1-0.9,0.3c-1.4,0.9-2.7,1.7-3.9,2.2c-1.3,0.5-2.8,0.7-4.5,0.7
			c-2.9,0-5.3-0.7-7.5-2c-2.2-1.3-3.8-3.1-5-5.7c-1.2-2.5-1.7-5.3-1.7-8.8c0-3.4,0.6-6.3,1.9-8.8s2.9-4.5,5.1-5.9
			c2.2-1.4,4.6-2.1,7.4-2.1C235.9,160.1,237.4,160.3,238.6,160.9z"/>
		<path d="M251.5,191.6c-0.9-0.9-1.4-2.3-1.4-3.9c0-1.4,0.3-2.4,1.2-3.4c0.7-0.9,1.6-1.6,2.7-2.1c1-0.5,2.3-1,4.1-1.6
			c1.7-0.6,2.9-1,3.7-1.6c0.8-0.5,1.3-1.2,1.3-2v-2.8c0-1.7-0.3-2.9-1.2-3.6c-0.7-0.7-1.7-0.9-3.1-0.9c-2.1,0-3.6,0.6-4.5,1.6
			c0.6,0.1,1.2,0.5,1.5,0.9c0.5,0.5,0.6,1,0.6,1.9c0,0.8-0.2,1.4-0.7,1.7c-0.5,0.5-1,0.7-1.9,0.7c-0.8,0-1.5-0.2-1.9-0.8
			c-0.5-0.6-0.6-1.2-0.6-2c0-0.7,0.1-1.3,0.5-1.9c0.3-0.5,0.8-0.9,1.5-1.4c0.7-0.5,1.6-0.9,2.8-1.3c1.2-0.3,2.3-0.5,3.7-0.5
			c2.3,0,4.2,0.6,5.3,1.6c0.8,0.7,1.3,1.5,1.5,2.5c0.2,1,0.3,2.3,0.3,3.8v12.5c0,0.7,0.1,1.3,0.3,1.6c0.2,0.3,0.6,0.5,1,0.5
			c0.3,0,0.7-0.1,1-0.2c0.3-0.1,0.7-0.3,1-0.7l0.5,0.8c-0.8,0.6-1.5,1-2,1.3c-0.6,0.2-1.3,0.3-2.1,0.3c-1.4,0-2.4-0.3-3-1
			c-0.6-0.7-0.8-1.7-0.8-2.9c-0.9,1.5-2,2.5-3.1,3.1c-1.2,0.6-2.5,0.9-3.9,0.9C253.8,193,252.4,192.5,251.5,191.6z M262.7,187.8V179
			c-0.2,0.5-0.7,0.8-1.2,1c-0.5,0.2-1.3,0.6-2.2,1c-1.2,0.5-2.1,0.9-2.8,1.4c-0.7,0.5-1.3,1-1.9,1.7c-0.5,0.8-0.8,1.7-0.8,2.9
			c0,1.4,0.3,2.4,1,3.1c0.7,0.7,1.5,1,2.7,1C259.6,191.3,261.4,190.1,262.7,187.8z"/>
		<path d="M279.4,169.5h6.7v0.9h-6.7v17.5c0,1.4,0.2,2.3,0.7,2.9c0.5,0.6,1.2,0.9,2.2,0.9c0.9,0,1.7-0.3,2.4-1.2
			c0.7-0.7,1.3-2,1.6-3.7l0.9,0.2c-0.8,4.2-2.7,6.3-5.9,6.3c-1,0-1.9-0.1-2.5-0.3c-0.7-0.2-1.3-0.6-1.7-1.2
			c-0.7-0.7-1.2-1.5-1.4-2.4c-0.2-0.9-0.3-2.3-0.3-3.9v-15.2h-4.3v-0.9h4.3v-6.9c1.7-0.1,3-0.2,4.1-0.6L279.4,169.5L279.4,169.5z"/>
		<path d="M290,191.6c-0.9-0.9-1.4-2.3-1.4-3.9c0-1.4,0.3-2.4,1.2-3.4c0.7-0.9,1.6-1.6,2.7-2.1c1-0.5,2.3-1,4.1-1.6
			c1.7-0.6,2.9-1,3.7-1.6c0.8-0.5,1.3-1.2,1.3-2v-2.8c0-1.7-0.3-2.9-1.2-3.6c-0.7-0.7-1.7-0.9-3.1-0.9c-2.1,0-3.6,0.6-4.5,1.6
			c0.6,0.1,1.2,0.5,1.5,0.9c0.5,0.5,0.6,1,0.6,1.9c0,0.8-0.2,1.4-0.7,1.7c-0.5,0.5-1,0.7-1.9,0.7s-1.5-0.2-1.9-0.8
			c-0.5-0.6-0.6-1.2-0.6-2c0-0.7,0.1-1.3,0.5-1.9c0.3-0.5,0.8-0.9,1.5-1.4c0.7-0.5,1.6-0.9,2.8-1.3c1.2-0.3,2.3-0.5,3.7-0.5
			c2.3,0,4.2,0.6,5.3,1.6c0.8,0.7,1.3,1.5,1.5,2.5c0.2,1,0.3,2.3,0.3,3.8v12.5c0,0.7,0.1,1.3,0.3,1.6c0.2,0.3,0.6,0.5,1,0.5
			c0.3,0,0.7-0.1,1-0.2c0.3-0.1,0.7-0.3,1-0.7l0.5,0.8c-0.8,0.6-1.5,1-2,1.3c-0.6,0.2-1.3,0.3-2.1,0.3c-1.4,0-2.4-0.3-3-1
			s-0.8-1.7-0.8-2.9c-0.9,1.5-2,2.5-3.1,3.1c-1.2,0.6-2.5,0.9-3.9,0.9C292.3,193,290.9,192.5,290,191.6z M301.3,187.8V179
			c-0.2,0.5-0.7,0.8-1.2,1c-0.5,0.2-1.3,0.6-2.2,1c-1.2,0.5-2.1,0.9-2.8,1.4c-0.7,0.5-1.3,1-1.9,1.7c-0.5,0.8-0.8,1.7-0.8,2.9
			c0,1.4,0.3,2.4,1,3.1c0.7,0.7,1.5,1,2.7,1C298.2,191.3,299.8,190.1,301.3,187.8z"/>
		<path d="M317.8,188.5c0,1.3,0.2,2.1,0.8,2.5c0.5,0.5,1.4,0.7,2.7,0.7v0.9c-2.8-0.1-4.6-0.2-5.4-0.2c-0.9,0-2.7,0.1-5.4,0.2v-0.9
			c1.3,0,2.2-0.2,2.7-0.7c0.5-0.5,0.8-1.3,0.8-2.5v-25.8c0-1.4-0.2-2.4-0.8-3c-0.5-0.6-1.4-0.9-2.7-0.9v-0.9
			c0.9,0.1,1.9,0.1,2.8,0.1c1.9,0,3.5-0.2,4.7-0.6v31.2H317.8z"/>
		<path d="M325.4,191.6c-0.9-0.9-1.4-2.3-1.4-3.9c0-1.4,0.3-2.4,1.2-3.4c0.7-0.9,1.6-1.6,2.7-2.1c1-0.5,2.3-1,4.1-1.6
			c1.7-0.6,2.9-1,3.7-1.6c0.8-0.5,1.3-1.2,1.3-2v-2.8c0-1.7-0.3-2.9-1.2-3.6c-0.7-0.7-1.7-0.9-3.1-0.9c-2.1,0-3.6,0.6-4.5,1.6
			c0.6,0.1,1.2,0.5,1.5,0.9c0.5,0.5,0.6,1,0.6,1.9c0,0.8-0.2,1.4-0.7,1.7c-0.5,0.5-1,0.7-1.9,0.7s-1.5-0.2-1.9-0.8
			c-0.5-0.6-0.6-1.2-0.6-2c0-0.7,0.1-1.3,0.5-1.9c0.3-0.5,0.8-0.9,1.5-1.4c0.7-0.5,1.6-0.9,2.8-1.3c1.2-0.3,2.3-0.5,3.7-0.5
			c2.3,0,4.2,0.6,5.3,1.6c0.8,0.7,1.3,1.5,1.5,2.5c0.2,1,0.3,2.3,0.3,3.8v12.5c0,0.7,0.1,1.3,0.3,1.6c0.2,0.3,0.6,0.5,1,0.5
			c0.3,0,0.7-0.1,1-0.2c0.3-0.1,0.7-0.3,1-0.7l0.5,0.8c-0.8,0.6-1.5,1-2,1.3c-0.6,0.2-1.3,0.3-2.1,0.3c-1.4,0-2.4-0.3-3-1
			s-0.8-1.7-0.8-2.9c-0.9,1.5-2,2.5-3.1,3.1c-1.2,0.6-2.5,0.9-3.9,0.9C327.7,193,326.3,192.5,325.4,191.6z M336.6,187.8V179
			c-0.2,0.5-0.7,0.8-1.2,1c-0.5,0.2-1.3,0.6-2.2,1c-1.2,0.5-2.1,0.9-2.8,1.4c-0.7,0.5-1.3,1-1.9,1.7c-0.5,0.8-0.8,1.7-0.8,2.9
			c0,1.4,0.3,2.4,1,3.1c0.7,0.7,1.5,1,2.7,1C333.5,191.3,335.2,190.1,336.6,187.8z"/>
		<path d="M366.1,170.5c0.6,0.6,0.9,1.4,1.3,2.3c0.2,0.9,0.3,2.1,0.3,3.7v12c0,1.3,0.2,2.1,0.8,2.5c0.5,0.5,1.4,0.7,2.7,0.7v0.9
			c-2.8-0.1-4.6-0.2-5.4-0.2s-2.5,0.1-5.1,0.2v-0.9c1.2,0,1.9-0.2,2.3-0.7c0.5-0.5,0.7-1.3,0.7-2.5v-13.1c0-1.7-0.2-3-0.7-3.8
			c-0.5-0.9-1.5-1.4-2.9-1.4c-1.3,0-2.3,0.3-3.2,1c-0.9,0.7-1.7,1.7-2.2,3c-0.6,1.3-0.8,2.7-0.8,4.2v10.1c0,1.3,0.2,2.1,0.7,2.5
			c0.5,0.5,1.2,0.7,2.3,0.7v0.9c-2.5-0.1-4.2-0.2-5.1-0.2c-0.8,0-2.7,0.1-5.4,0.2v-0.9c1.3,0,2.2-0.2,2.7-0.7
			c0.5-0.5,0.8-1.3,0.8-2.5v-14.1c0-1.4-0.2-2.4-0.8-3s-1.4-0.9-2.7-0.9v-0.9c0.9,0.1,1.9,0.1,2.8,0.1c1.9,0,3.5-0.2,4.7-0.6v5.3
			c0.7-2,1.9-3.4,3.1-4.2c1.4-0.8,2.9-1.3,4.5-1.3C363.3,168.8,364.9,169.4,366.1,170.5z"/>
		<path d="M374.9,191.6c-0.9-0.9-1.4-2.3-1.4-3.9c0-1.4,0.3-2.4,1.2-3.4c0.7-0.9,1.6-1.6,2.7-2.1c1-0.5,2.3-1,4.1-1.6
			c1.7-0.6,2.9-1,3.7-1.6c0.8-0.5,1.3-1.2,1.3-2v-2.8c0-1.7-0.3-2.9-1.2-3.6c-0.7-0.7-1.7-0.9-3.1-0.9c-2.1,0-3.6,0.6-4.5,1.6
			c0.6,0.1,1.2,0.5,1.5,0.9c0.5,0.5,0.6,1,0.6,1.9c0,0.8-0.2,1.4-0.7,1.7c-0.5,0.5-1,0.7-1.9,0.7s-1.5-0.2-1.9-0.8
			c-0.5-0.6-0.6-1.2-0.6-2c0-0.7,0.1-1.3,0.5-1.9c0.3-0.5,0.8-0.9,1.5-1.4c0.7-0.5,1.6-0.9,2.8-1.3c1.2-0.3,2.3-0.5,3.7-0.5
			c2.3,0,4.2,0.6,5.3,1.6c0.8,0.7,1.3,1.5,1.5,2.5c0.2,1,0.3,2.3,0.3,3.8v12.5c0,0.7,0.1,1.3,0.3,1.6c0.2,0.3,0.6,0.5,1,0.5
			c0.3,0,0.7-0.1,1-0.2c0.3-0.1,0.7-0.3,1-0.7l0.5,0.8c-0.8,0.6-1.5,1-2,1.3c-0.6,0.2-1.3,0.3-2.1,0.3c-1.4,0-2.4-0.3-3-1
			s-0.8-1.7-0.8-2.9c-0.9,1.5-2,2.5-3.1,3.1c-1.2,0.6-2.5,0.9-3.9,0.9C377.2,193,375.8,192.5,374.9,191.6z M386.1,187.8V179
			c-0.2,0.5-0.7,0.8-1.2,1c-0.5,0.2-1.3,0.6-2.2,1c-1.2,0.5-2.1,0.9-2.8,1.4c-0.7,0.5-1.3,1-1.9,1.7c-0.5,0.8-0.8,1.7-0.8,2.9
			c0,1.4,0.3,2.4,1,3.1c0.7,0.7,1.5,1,2.7,1C383.1,191.3,384.7,190.1,386.1,187.8z"/>
		<path d="M427.6,190.8c0.5,0.6,1.4,0.9,2.7,0.9v0.9c-0.9-0.1-1.9-0.1-2.8-0.1c-1.9,0-3.5,0.2-4.7,0.6v-4.1
			c-0.6,1.4-1.4,2.4-2.4,3.1c-1,0.7-2.4,1-3.9,1c-2.9,0-5.2-1-6.8-3.1c-1.6-2.1-2.4-5.1-2.4-9.2c0-2.7,0.5-4.9,1.4-6.7
			c0.9-1.9,2.2-3.2,3.7-4.2c1.5-0.9,3.2-1.4,5.1-1.4c1.2,0,2.2,0.2,3.1,0.7c0.9,0.5,1.7,1.2,2.3,2v-8.8c0-1.4-0.2-2.4-0.8-3
			c-0.5-0.6-1.4-0.9-2.7-0.9v-0.9c0.9,0.1,1.9,0.1,2.8,0.1c1.9,0,3.5-0.2,4.7-0.6v30.5C426.8,189.2,427,190.2,427.6,190.8z
			 M420.7,190.7c0.9-0.9,1.6-2.2,2-3.8v-13.4c-0.8-2.3-2.5-3.5-5.1-3.5c-1.9,0-3.4,0.9-4.5,2.9c-1.2,2-1.7,4.7-1.6,8.3
			c0,3.6,0.5,6.4,1.5,8.1c1,1.9,2.5,2.8,4.6,2.8C418.8,191.9,419.8,191.6,420.7,190.7z"/>
		<path d="M452,187.3c-0.6,1.6-1.5,3.1-3,4.3c-1.5,1.2-3.2,1.7-5.4,1.7c-2.1,0-3.9-0.5-5.6-1.5c-1.6-1-2.8-2.3-3.6-4.1
			c-0.8-1.7-1.3-3.8-1.3-6.1c0-2.7,0.5-4.9,1.3-6.8c0.8-2,2.1-3.4,3.6-4.4s3.4-1.5,5.3-1.5c2.7,0,4.7,0.8,6.3,2.4
			c1.5,1.6,2.2,4.2,2.2,7.5h-14.1c-0.1,0.8-0.1,1.9-0.1,2.9c0,2,0.3,3.7,0.9,5.2c0.7,1.5,1.5,2.7,2.5,3.4c1,0.8,2.2,1.2,3.4,1.2
			c1.4,0,2.8-0.3,3.8-1c1.2-0.7,2.1-1.9,2.8-3.5L452,187.3z M439.6,171.8c-1,1.4-1.6,3.5-1.9,6.1h9.8c0.1-2.3-0.2-4.3-1-5.9
			c-0.7-1.6-1.9-2.3-3.2-2.3C441.8,169.7,440.6,170.4,439.6,171.8z"/>
		<path d="M162.8,232.8c1.9,1.5,2.8,3.2,2.8,5.3c0,2.8-1,5-3.2,6.5c-2.2,1.5-5.2,2.3-9.2,2.3c-0.9,0-1.6,0-2.2,0
			c-2-0.1-3.9-0.1-5.8-0.1c-3.1,0-5.4,0-6.9,0.1V246c1-0.1,1.7-0.2,2.2-0.3c0.5-0.2,0.8-0.6,0.9-1c0.1-0.5,0.2-1.4,0.2-2.4v-22.4
			c0-1.2-0.1-2-0.2-2.4c-0.1-0.5-0.5-0.8-0.9-1c-0.5-0.2-1.2-0.3-2.2-0.3v-0.9c1.5,0.1,3.8,0.1,6.8,0.1h5c0.6,0,1.3,0,2.1,0
			c3.6,0,6.4,0.7,8.3,2c2,1.3,2.9,3,2.9,5.1c0,1.7-0.8,3.4-2.3,4.9s-3.8,2.5-6.7,3.1v0.1C158,230.4,160.9,231.3,162.8,232.8z
			 M149.7,216.2c-0.3,0.2-0.7,0.6-0.8,1.2c-0.1,0.6-0.2,1.4-0.2,2.4v10.2h2c2,0,3.4-0.7,4.1-2c0.8-1.4,1.2-3.1,1.2-5.3
			s-0.3-3.9-1-5.1c-0.7-1.2-1.9-1.6-3.4-1.6C150.6,215.8,150,215.9,149.7,216.2z M158,237.9c0-2.4-0.6-4.2-1.9-5.4
			c-1.2-1.3-3.1-1.9-5.7-1.9h-1.9v11.5c0,1,0.1,1.9,0.2,2.4c0.1,0.5,0.5,0.8,0.9,1c0.5,0.2,1.2,0.3,2,0.3
			C155.9,245.9,158,243.3,158,237.9z"/>
		<path d="M182.2,215.8c-1,0.1-1.7,0.2-2.2,0.3c-0.5,0.2-0.8,0.6-0.9,1c-0.1,0.5-0.2,1.4-0.2,2.4V242c0,1.2,0.1,2,0.2,2.4
			c0.1,0.5,0.5,0.8,0.9,1c0.5,0.2,1.2,0.3,2.2,0.3v0.9c-1.6-0.1-3.9-0.1-6.8-0.1c-3.2,0-5.6,0-7.2,0.1v-0.9c1-0.1,1.7-0.2,2.2-0.3
			c0.5-0.2,0.8-0.6,0.9-1c0.1-0.5,0.2-1.4,0.2-2.4v-22.4c0-1.2-0.1-2-0.2-2.4c-0.1-0.5-0.5-0.8-0.9-1c-0.5-0.2-1.2-0.3-2.2-0.3v-0.9
			c1.5,0.1,3.9,0.1,7.2,0.1c2.9,0,5.2,0,6.8-0.1V215.8z"/>
		<path d="M209.7,216.3c2.4,1.3,4.3,3.1,5.6,5.7c1.3,2.4,2,5.3,2,8.8c0,3.4-0.7,6.3-2.1,8.8c-1.4,2.5-3.2,4.5-5.7,5.9
			c-2.4,1.4-5.2,2.1-8.3,2.1c-3.2,0-6-0.7-8.3-2c-2.4-1.3-4.3-3.1-5.6-5.7c-1.3-2.4-2-5.3-2-8.8c0-3.4,0.7-6.3,2.1-8.8
			c1.4-2.5,3.2-4.5,5.7-5.9c2.4-1.4,5.2-2.1,8.3-2.1S207.3,215,209.7,216.3z M196.7,217.1c-1.3,1.4-2.2,3.2-2.9,5.7s-1,5.2-1,8.2
			c0,3.1,0.3,5.9,1.2,8.2s1.9,4.2,3.1,5.6c1.3,1.3,2.8,2,4.4,2c1.6,0,3.1-0.7,4.4-2c1.3-1.4,2.2-3.2,2.9-5.7s1-5.2,1-8.2
			c0-3.1-0.3-5.9-1.2-8.2c-0.8-2.4-1.9-4.2-3.1-5.6c-1.3-1.3-2.8-2-4.4-2S198,215.8,196.7,217.1z"/>
		<path d="M234.6,215.8c-1,0.1-1.9,0.2-2.3,0.3c-0.5,0.2-0.8,0.6-1,1c-0.2,0.5-0.2,1.4-0.2,2.4v22.9c0,0.9,0.1,1.6,0.2,2.1
			c0.1,0.5,0.5,0.7,0.8,0.9c0.3,0.2,1,0.2,1.9,0.2h2.2c2.1,0,3.8-0.9,5.3-2.8s2.4-4.3,2.9-7.3h1c-0.1,1-0.1,2.3-0.1,3.9
			c0,2.9,0.1,5.3,0.3,7.2c-2.1-0.1-5.4-0.1-10.3-0.1c-6.6,0-11.5,0-14.7,0.1v-0.9c1-0.1,1.7-0.2,2.2-0.3c0.5-0.2,0.8-0.6,0.9-1
			c0.1-0.5,0.2-1.4,0.2-2.4v-22.4c0-1.2-0.1-2-0.2-2.4c-0.1-0.5-0.5-0.8-0.9-1c-0.5-0.2-1.2-0.3-2.2-0.3V215
			c1.5,0.1,3.9,0.1,7.2,0.1c3.1,0,5.4,0,7.1-0.1v0.8H234.6z"/>
		<path d="M272.7,216.3c2.4,1.3,4.3,3.1,5.6,5.7c1.3,2.4,2,5.3,2,8.8c0,3.4-0.7,6.3-2.1,8.8c-1.4,2.5-3.2,4.5-5.7,5.9
			c-2.4,1.4-5.2,2.1-8.3,2.1c-3.2,0-6-0.7-8.3-2c-2.4-1.3-4.3-3.1-5.6-5.7c-1.3-2.4-2-5.3-2-8.8c0-3.4,0.7-6.3,2.1-8.8
			c1.4-2.5,3.2-4.5,5.7-5.9c2.4-1.4,5.2-2.1,8.3-2.1C267.6,214.3,270.4,215,272.7,216.3z M259.8,217.1c-1.3,1.4-2.2,3.2-2.9,5.7
			c-0.7,2.4-1,5.2-1,8.2c0,3.1,0.3,5.9,1.2,8.2s1.9,4.2,3.1,5.6c1.3,1.3,2.8,2,4.4,2s3.1-0.7,4.4-2c1.3-1.4,2.2-3.2,2.9-5.7
			c0.7-2.4,1-5.2,1-8.2c0-3.1-0.3-5.9-1.2-8.2c-0.8-2.4-1.9-4.2-3.1-5.6c-1.3-1.3-2.8-2-4.4-2C262.5,215.1,261.1,215.8,259.8,217.1z
			"/>
		<path d="M305.2,215.1c1.3,0.5,2.5,1.3,3.8,2.2c0.3,0.2,0.7,0.5,0.9,0.5c0.3,0,0.6-0.2,0.7-0.7c0.2-0.5,0.3-1.2,0.5-2.1h1
			c-0.1,2.1-0.2,5.7-0.2,10.9h-1c-0.2-2.1-0.6-3.7-1-5s-1.3-2.3-2.3-3.2c-0.7-0.7-1.6-1.3-2.7-1.6c-1-0.3-2.1-0.6-3.2-0.6
			c-2.1,0-3.8,0.7-5.2,2.2c-1.4,1.4-2.4,3.4-3.1,5.7c-0.7,2.3-1,5-1,7.8c0,10.4,2.9,15.6,8.7,15.6c1.3,0,2.4-0.3,3.2-0.9
			c0.3-0.2,0.7-0.6,0.8-0.9c0.1-0.3,0.2-0.8,0.2-1.4v-4.4c0-1.4-0.1-2.4-0.3-3.1c-0.2-0.7-0.7-1-1.3-1.4c-0.6-0.2-1.6-0.3-2.9-0.5
			v-0.9c1.9,0.1,4.4,0.1,7.8,0.1c2.7,0,4.7,0,6-0.1v0.9c-0.6,0.1-1,0.2-1.3,0.3c-0.2,0.2-0.5,0.6-0.6,1s-0.1,1.4-0.1,2.4v8.9h-0.9
			c0-0.6-0.1-1.3-0.3-1.7c-0.2-0.6-0.6-0.8-0.9-0.8c-0.5,0-1.3,0.3-2.4,0.9c-2.7,1.5-5.1,2.3-7.4,2.3c-5.2,0-9.2-1.4-11.9-4.3
			c-2.8-2.9-4.2-6.8-4.2-12c0-3.4,0.7-6.4,2.1-8.9s3.4-4.5,5.8-5.9c2.4-1.4,5.3-2.1,8.5-2.1C302.5,214.3,304,214.5,305.2,215.1z"/>
		<path d="M331,215.8c-1,0.1-1.7,0.2-2.2,0.3c-0.5,0.2-0.8,0.6-0.9,1c-0.1,0.5-0.2,1.4-0.2,2.4V242c0,1.2,0.1,2,0.2,2.4
			c0.1,0.5,0.5,0.8,0.9,1c0.5,0.2,1.2,0.3,2.2,0.3v0.9c-1.6-0.1-3.9-0.1-6.8-0.1c-3.2,0-5.6,0-7.2,0.1v-0.9c1-0.1,1.7-0.2,2.2-0.3
			c0.5-0.2,0.8-0.6,0.9-1c0.1-0.5,0.2-1.4,0.2-2.4v-22.4c0-1.2-0.1-2-0.2-2.4c-0.1-0.5-0.5-0.8-0.9-1s-1.2-0.3-2.2-0.3v-0.9
			c1.5,0.1,3.9,0.1,7.2,0.1c2.9,0,5.2,0,6.8-0.1V215.8z"/>
		<path d="M361.4,245.3c0.5,0.5,1,0.7,1.5,0.7v0.9c-1.9-0.1-4.1-0.1-6.8-0.1c-3.1,0-5.3,0-6.8,0.1V246c1.2-0.1,2-0.2,2.4-0.5
			c0.5-0.2,0.7-0.6,0.7-1.2s-0.2-1.3-0.6-2.2l-2.7-7.4h-10l-1.2,3.1c-0.8,2.2-1.3,3.8-1.3,5c0,1.2,0.3,1.9,1,2.3
			c0.7,0.5,1.6,0.7,3,0.7v0.9c-2.1-0.1-3.9-0.1-5.6-0.1c-1.4,0-2.5,0-3.5,0.1v-0.9c1.5-0.2,2.8-1.9,3.9-4.7l10.3-26.4
			c0.3,0,0.8,0,1.6,0s1.3,0,1.5,0l10.9,28.4C360.4,244.2,360.8,244.9,361.4,245.3z M348.8,233.9l-4.5-12.2l-4.7,12.2H348.8z"/>
	</g>
</g>
</svg>
